<?xml version="1.0"?>
<svg xmlns="http://www.w3.org/2000/svg" xmlns:xlink="http://www.w3.org/1999/xlink" xmlns:svgjs="http://svgjs.com/svgjs" version="1.1" width="512" height="512" x="0" y="0" viewBox="0 0 24 24" style="enable-background:new 0 0 512 512" xml:space="preserve"><g><path xmlns="http://www.w3.org/2000/svg" d="M7,6H23a1,1,0,0,0,0-2H7A1,1,0,0,0,7,6Z" fill="#708090"  data-original="#000000"/><path xmlns="http://www.w3.org/2000/svg" d="M23,11H7a1,1,0,0,0,0,2H23a1,1,0,0,0,0-2Z" fill="#708090" data-original="#000000"/><path xmlns="http://www.w3.org/2000/svg" d="M23,18H7a1,1,0,0,0,0,2H23a1,1,0,0,0,0-2Z" fill="#708090" data-original="#000000"/><circle xmlns="http://www.w3.org/2000/svg" cx="2" cy="5" r="2" fill="#708090" data-original="#000000"/><circle xmlns="http://www.w3.org/2000/svg" cx="2" cy="12" r="2" fill="#708090" data-original="#000000"/><circle xmlns="http://www.w3.org/2000/svg" cx="2" cy="19" r="2" fill="#708090" data-original="#000000"/></g></svg>
