<?xml version="1.0"?>
<svg xmlns="http://www.w3.org/2000/svg" xmlns:xlink="http://www.w3.org/1999/xlink" xmlns:svgjs="http://svgjs.com/svgjs" version="1.1" width="512" height="512" x="0" y="0" viewBox="0 0 24 24" style="enable-background:new 0 0 512 512" xml:space="preserve"><g><path xmlns="http://www.w3.org/2000/svg" d="M15,3.849h0a1.02,1.02,0,0,0,.629.926A9,9,0,0,1,21,13.292,9,9,0,0,1,3,13,9,9,0,0,1,8.371,4.776,1.023,1.023,0,0,0,9,3.848H9a1,1,0,0,0-1.374-.929,11,11,0,1,0,8.751,0A1,1,0,0,0,15,3.849Z" fill="#708090" data-original="#000000"/><rect xmlns="http://www.w3.org/2000/svg" x="11" width="2" height="8" rx="1" fill="#212121" data-original="#000000"/></g></svg>
